<mxfile host="app.diagrams.net" agent="Mozilla/5.0 (Macintosh; Intel Mac OS X 10_15_7) AppleWebKit/537.36 (KHTML, like Gecko) Chrome/131.0.0.0 Safari/537.36" version="25.0.1">
  <diagram name="Page-1" id="IOCudB7ZZ74l095RQHEK">
    <mxGraphModel dx="2257" dy="814" grid="1" gridSize="10" guides="1" tooltips="1" connect="1" arrows="1" fold="1" page="1" pageScale="1" pageWidth="827" pageHeight="1169" math="0" shadow="0">
      <root>
        <mxCell id="0" />
        <mxCell id="1" parent="0" />
        <mxCell id="YMbqMx9NgxkSihepzcIP-1" value="Command Service" style="ellipse;whiteSpace=wrap;html=1;" parent="1" vertex="1">
          <mxGeometry x="390" y="390" width="120" height="80" as="geometry" />
        </mxCell>
        <mxCell id="YMbqMx9NgxkSihepzcIP-3" value="Query Service" style="ellipse;whiteSpace=wrap;html=1;" parent="1" vertex="1">
          <mxGeometry x="390" y="550" width="120" height="80" as="geometry" />
        </mxCell>
        <mxCell id="YMbqMx9NgxkSihepzcIP-4" value="&lt;font style=&quot;font-size: 10px;&quot;&gt;Bookings Partition 1&lt;/font&gt;" style="shape=parallelogram;perimeter=parallelogramPerimeter;whiteSpace=wrap;html=1;fixedSize=1;" parent="1" vertex="1">
          <mxGeometry x="150" y="310" width="120" height="60" as="geometry" />
        </mxCell>
        <mxCell id="YMbqMx9NgxkSihepzcIP-5" value="&lt;font style=&quot;font-size: 10px;&quot;&gt;Bookings Partition 2&lt;/font&gt;" style="shape=parallelogram;perimeter=parallelogramPerimeter;whiteSpace=wrap;html=1;fixedSize=1;" parent="1" vertex="1">
          <mxGeometry x="150" y="400" width="120" height="60" as="geometry" />
        </mxCell>
        <mxCell id="YMbqMx9NgxkSihepzcIP-6" value="&lt;font style=&quot;font-size: 10px;&quot;&gt;Bookings Partition 3&lt;/font&gt;" style="shape=parallelogram;perimeter=parallelogramPerimeter;whiteSpace=wrap;html=1;fixedSize=1;" parent="1" vertex="1">
          <mxGeometry x="150" y="500" width="120" height="60" as="geometry" />
        </mxCell>
        <mxCell id="YMbqMx9NgxkSihepzcIP-7" value="" style="endArrow=classic;html=1;rounded=0;" parent="1" source="YMbqMx9NgxkSihepzcIP-4" target="YMbqMx9NgxkSihepzcIP-1" edge="1">
          <mxGeometry width="50" height="50" relative="1" as="geometry">
            <mxPoint x="270" y="510" as="sourcePoint" />
            <mxPoint x="320" y="460" as="targetPoint" />
          </mxGeometry>
        </mxCell>
        <mxCell id="YMbqMx9NgxkSihepzcIP-8" value="" style="endArrow=classic;html=1;rounded=0;" parent="1" source="YMbqMx9NgxkSihepzcIP-5" target="YMbqMx9NgxkSihepzcIP-1" edge="1">
          <mxGeometry width="50" height="50" relative="1" as="geometry">
            <mxPoint x="267" y="400" as="sourcePoint" />
            <mxPoint x="403" y="428" as="targetPoint" />
          </mxGeometry>
        </mxCell>
        <mxCell id="YMbqMx9NgxkSihepzcIP-9" value="" style="endArrow=classic;html=1;rounded=0;" parent="1" source="YMbqMx9NgxkSihepzcIP-6" target="YMbqMx9NgxkSihepzcIP-1" edge="1">
          <mxGeometry width="50" height="50" relative="1" as="geometry">
            <mxPoint x="277" y="410" as="sourcePoint" />
            <mxPoint x="413" y="438" as="targetPoint" />
          </mxGeometry>
        </mxCell>
        <mxCell id="YMbqMx9NgxkSihepzcIP-12" value="MongoDB" style="shape=dataStorage;whiteSpace=wrap;html=1;fixedSize=1;" parent="1" vertex="1">
          <mxGeometry x="670" y="470" width="100" height="80" as="geometry" />
        </mxCell>
        <mxCell id="YMbqMx9NgxkSihepzcIP-13" value="" style="endArrow=classic;html=1;rounded=0;" parent="1" source="YMbqMx9NgxkSihepzcIP-1" target="YMbqMx9NgxkSihepzcIP-12" edge="1">
          <mxGeometry width="50" height="50" relative="1" as="geometry">
            <mxPoint x="490" y="490" as="sourcePoint" />
            <mxPoint x="634" y="543" as="targetPoint" />
          </mxGeometry>
        </mxCell>
        <mxCell id="YMbqMx9NgxkSihepzcIP-14" value="" style="endArrow=classic;html=1;rounded=0;" parent="1" source="YMbqMx9NgxkSihepzcIP-12" target="YMbqMx9NgxkSihepzcIP-3" edge="1">
          <mxGeometry width="50" height="50" relative="1" as="geometry">
            <mxPoint x="274" y="377" as="sourcePoint" />
            <mxPoint x="418" y="430" as="targetPoint" />
          </mxGeometry>
        </mxCell>
        <mxCell id="YMbqMx9NgxkSihepzcIP-15" value="Bookings Topic" style="shape=hexagon;perimeter=hexagonPerimeter2;whiteSpace=wrap;html=1;fixedSize=1;" parent="1" vertex="1">
          <mxGeometry x="-70" y="390" width="120" height="80" as="geometry" />
        </mxCell>
        <mxCell id="YMbqMx9NgxkSihepzcIP-16" value="" style="endArrow=classic;html=1;rounded=0;" parent="1" source="YMbqMx9NgxkSihepzcIP-15" target="YMbqMx9NgxkSihepzcIP-4" edge="1">
          <mxGeometry width="50" height="50" relative="1" as="geometry">
            <mxPoint x="264" y="367" as="sourcePoint" />
            <mxPoint x="408" y="420" as="targetPoint" />
          </mxGeometry>
        </mxCell>
        <mxCell id="YMbqMx9NgxkSihepzcIP-17" value="" style="endArrow=classic;html=1;rounded=0;" parent="1" source="YMbqMx9NgxkSihepzcIP-15" target="YMbqMx9NgxkSihepzcIP-5" edge="1">
          <mxGeometry width="50" height="50" relative="1" as="geometry">
            <mxPoint x="274" y="377" as="sourcePoint" />
            <mxPoint x="418" y="430" as="targetPoint" />
          </mxGeometry>
        </mxCell>
        <mxCell id="YMbqMx9NgxkSihepzcIP-18" value="" style="endArrow=classic;html=1;rounded=0;" parent="1" source="YMbqMx9NgxkSihepzcIP-15" target="YMbqMx9NgxkSihepzcIP-6" edge="1">
          <mxGeometry width="50" height="50" relative="1" as="geometry">
            <mxPoint x="284" y="387" as="sourcePoint" />
            <mxPoint x="428" y="440" as="targetPoint" />
          </mxGeometry>
        </mxCell>
        <mxCell id="YMbqMx9NgxkSihepzcIP-32" value="Booking Service" style="ellipse;whiteSpace=wrap;html=1;" parent="1" vertex="1">
          <mxGeometry x="-70" y="550" width="120" height="80" as="geometry" />
        </mxCell>
        <mxCell id="YMbqMx9NgxkSihepzcIP-33" value="" style="endArrow=classic;html=1;rounded=0;" parent="1" source="YMbqMx9NgxkSihepzcIP-32" target="YMbqMx9NgxkSihepzcIP-15" edge="1">
          <mxGeometry width="50" height="50" relative="1" as="geometry">
            <mxPoint x="50" y="420" as="sourcePoint" />
            <mxPoint x="162" y="374" as="targetPoint" />
          </mxGeometry>
        </mxCell>
        <mxCell id="YMbqMx9NgxkSihepzcIP-34" value="" style="endArrow=classic;html=1;rounded=0;" parent="1" source="YMbqMx9NgxkSihepzcIP-3" target="YMbqMx9NgxkSihepzcIP-32" edge="1">
          <mxGeometry width="50" height="50" relative="1" as="geometry">
            <mxPoint y="560" as="sourcePoint" />
            <mxPoint y="480" as="targetPoint" />
          </mxGeometry>
        </mxCell>
        <mxCell id="YMbqMx9NgxkSihepzcIP-35" value="Actor" style="shape=umlActor;verticalLabelPosition=bottom;verticalAlign=top;html=1;outlineConnect=0;" parent="1" vertex="1">
          <mxGeometry x="-290" y="560" width="30" height="60" as="geometry" />
        </mxCell>
        <mxCell id="YMbqMx9NgxkSihepzcIP-36" value="" style="endArrow=classic;html=1;rounded=0;" parent="1" source="YMbqMx9NgxkSihepzcIP-35" target="YMbqMx9NgxkSihepzcIP-32" edge="1">
          <mxGeometry width="50" height="50" relative="1" as="geometry">
            <mxPoint x="400" y="600" as="sourcePoint" />
            <mxPoint x="60" y="600" as="targetPoint" />
          </mxGeometry>
        </mxCell>
      </root>
    </mxGraphModel>
  </diagram>
</mxfile>
